<svg xmlns="http://www.w3.org/2000/svg" version="1.1" xmlns:xlink="http://www.w3.org/1999/xlink" xmlns:svgjs="http://svgjs.dev/svgjs" width="1920" height="1080" preserveAspectRatio="none" viewBox="0 0 1920 1080">
    <g mask="url(&quot;#SvgjsMask1142&quot;)" fill="none">
        <rect width="1920" height="1080" x="0" y="0" fill="rgba(26, 26, 26, 1)"></rect>
        <path d="M858 205L857 896" stroke-width="6" stroke="url(&quot;#SvgjsLinearGradient1143&quot;)" stroke-linecap="round" class="Up"></path>
        <path d="M759 264L758 562" stroke-width="10" stroke="url(&quot;#SvgjsLinearGradient1143&quot;)" stroke-linecap="round" class="Up"></path>
        <path d="M1908 680L1907 141" stroke-width="10" stroke="url(&quot;#SvgjsLinearGradient1143&quot;)" stroke-linecap="round" class="Up"></path>
        <path d="M586 164L585 586" stroke-width="8" stroke="url(&quot;#SvgjsLinearGradient1143&quot;)" stroke-linecap="round" class="Up"></path>
        <path d="M291 562L290 -6" stroke-width="10" stroke="url(&quot;#SvgjsLinearGradient1143&quot;)" stroke-linecap="round" class="Up"></path>
        <path d="M237 988L236 380" stroke-width="8" stroke="url(&quot;#SvgjsLinearGradient1144&quot;)" stroke-linecap="round" class="Down"></path>
        <path d="M160 143L159 744" stroke-width="10" stroke="url(&quot;#SvgjsLinearGradient1144&quot;)" stroke-linecap="round" class="Down"></path>
        <path d="M1694 911L1693 1670" stroke-width="8" stroke="url(&quot;#SvgjsLinearGradient1143&quot;)" stroke-linecap="round" class="Up"></path>
        <path d="M1321 566L1320 1340" stroke-width="10" stroke="url(&quot;#SvgjsLinearGradient1144&quot;)" stroke-linecap="round" class="Down"></path>
        <path d="M1381 439L1380 993" stroke-width="6" stroke="url(&quot;#SvgjsLinearGradient1143&quot;)" stroke-linecap="round" class="Up"></path>
        <path d="M12 334L11 649" stroke-width="6" stroke="url(&quot;#SvgjsLinearGradient1144&quot;)" stroke-linecap="round" class="Down"></path>
        <path d="M1210 258L1209 913" stroke-width="8" stroke="url(&quot;#SvgjsLinearGradient1143&quot;)" stroke-linecap="round" class="Up"></path>
        <path d="M162 1063L161 657" stroke-width="8" stroke="url(&quot;#SvgjsLinearGradient1143&quot;)" stroke-linecap="round" class="Up"></path>
        <path d="M751 927L750 555" stroke-width="6" stroke="url(&quot;#SvgjsLinearGradient1144&quot;)" stroke-linecap="round" class="Down"></path>
        <path d="M1402 493L1401 1251" stroke-width="6" stroke="url(&quot;#SvgjsLinearGradient1143&quot;)" stroke-linecap="round" class="Up"></path>
        <path d="M1697 743L1696 123" stroke-width="8" stroke="url(&quot;#SvgjsLinearGradient1143&quot;)" stroke-linecap="round" class="Up"></path>
        <path d="M1897 1000L1896 252" stroke-width="8" stroke="url(&quot;#SvgjsLinearGradient1143&quot;)" stroke-linecap="round" class="Up"></path>
        <path d="M1198 1030L1197 526" stroke-width="10" stroke="url(&quot;#SvgjsLinearGradient1143&quot;)" stroke-linecap="round" class="Up"></path>
        <path d="M305 129L304 734" stroke-width="10" stroke="url(&quot;#SvgjsLinearGradient1143&quot;)" stroke-linecap="round" class="Up"></path>
        <path d="M1096 829L1095 1561" stroke-width="8" stroke="url(&quot;#SvgjsLinearGradient1144&quot;)" stroke-linecap="round" class="Down"></path>
        <path d="M527 513L526 981" stroke-width="10" stroke="url(&quot;#SvgjsLinearGradient1144&quot;)" stroke-linecap="round" class="Down"></path>
        <path d="M1664 790L1663 481" stroke-width="8" stroke="url(&quot;#SvgjsLinearGradient1143&quot;)" stroke-linecap="round" class="Up"></path>
        <path d="M544 763L543 1458" stroke-width="8" stroke="url(&quot;#SvgjsLinearGradient1143&quot;)" stroke-linecap="round" class="Up"></path>
        <path d="M1918 715L1917 58" stroke-width="10" stroke="url(&quot;#SvgjsLinearGradient1143&quot;)" stroke-linecap="round" class="Up"></path>
        <path d="M912 969L911 159" stroke-width="6" stroke="url(&quot;#SvgjsLinearGradient1143&quot;)" stroke-linecap="round" class="Up"></path>
        <path d="M322 198L321 -292" stroke-width="8" stroke="url(&quot;#SvgjsLinearGradient1143&quot;)" stroke-linecap="round" class="Up"></path>
        <path d="M1380 281L1379 755" stroke-width="10" stroke="url(&quot;#SvgjsLinearGradient1143&quot;)" stroke-linecap="round" class="Up"></path>
        <path d="M1184 1035L1183 381" stroke-width="6" stroke="url(&quot;#SvgjsLinearGradient1143&quot;)" stroke-linecap="round" class="Up"></path>
        <path d="M1702 171L1701 508" stroke-width="10" stroke="url(&quot;#SvgjsLinearGradient1144&quot;)" stroke-linecap="round" class="Down"></path>
        <path d="M363 73L362 -220" stroke-width="10" stroke="url(&quot;#SvgjsLinearGradient1144&quot;)" stroke-linecap="round" class="Down"></path>
        <path d="M1553 1075L1552 1409" stroke-width="6" stroke="url(&quot;#SvgjsLinearGradient1144&quot;)" stroke-linecap="round" class="Down"></path>
        <path d="M980 108L979 -579" stroke-width="8" stroke="url(&quot;#SvgjsLinearGradient1144&quot;)" stroke-linecap="round" class="Down"></path>
        <path d="M669 741L668 1153" stroke-width="6" stroke="url(&quot;#SvgjsLinearGradient1143&quot;)" stroke-linecap="round" class="Up"></path>
        <path d="M341 975L340 689" stroke-width="8" stroke="url(&quot;#SvgjsLinearGradient1144&quot;)" stroke-linecap="round" class="Down"></path>
        <path d="M712 537L711 -210" stroke-width="10" stroke="url(&quot;#SvgjsLinearGradient1144&quot;)" stroke-linecap="round" class="Down"></path>
        <path d="M956 656L955 -83" stroke-width="6" stroke="url(&quot;#SvgjsLinearGradient1144&quot;)" stroke-linecap="round" class="Down"></path>
        <path d="M1876 335L1875 -398" stroke-width="6" stroke="url(&quot;#SvgjsLinearGradient1143&quot;)" stroke-linecap="round" class="Up"></path>
        <path d="M521 929L520 506" stroke-width="8" stroke="url(&quot;#SvgjsLinearGradient1143&quot;)" stroke-linecap="round" class="Up"></path>
        <path d="M1507 464L1506 1210" stroke-width="10" stroke="url(&quot;#SvgjsLinearGradient1144&quot;)" stroke-linecap="round" class="Down"></path>
        <path d="M512 92L511 760" stroke-width="6" stroke="url(&quot;#SvgjsLinearGradient1143&quot;)" stroke-linecap="round" class="Up"></path>
        <path d="M521 675L520 1020" stroke-width="10" stroke="url(&quot;#SvgjsLinearGradient1143&quot;)" stroke-linecap="round" class="Up"></path>
        <path d="M1404 214L1403 690" stroke-width="8" stroke="url(&quot;#SvgjsLinearGradient1144&quot;)" stroke-linecap="round" class="Down"></path>
        <path d="M359 1055L358 513" stroke-width="6" stroke="url(&quot;#SvgjsLinearGradient1143&quot;)" stroke-linecap="round" class="Up"></path>
        <path d="M1209 673L1208 311" stroke-width="10" stroke="url(&quot;#SvgjsLinearGradient1143&quot;)" stroke-linecap="round" class="Up"></path>
        <path d="M261 923L260 1214" stroke-width="6" stroke="url(&quot;#SvgjsLinearGradient1144&quot;)" stroke-linecap="round" class="Down"></path>
        <path d="M600 965L599 1629" stroke-width="10" stroke="url(&quot;#SvgjsLinearGradient1143&quot;)" stroke-linecap="round" class="Up"></path>
        <path d="M1844 109L1843 578" stroke-width="10" stroke="url(&quot;#SvgjsLinearGradient1143&quot;)" stroke-linecap="round" class="Up"></path>
        <path d="M819 725L818 130" stroke-width="10" stroke="url(&quot;#SvgjsLinearGradient1143&quot;)" stroke-linecap="round" class="Up"></path>
    </g>
    <defs>
        <mask id="SvgjsMask1142">
            <rect width="1920" height="1080" fill="#ffffff"></rect>
        </mask>
        <linearGradient x1="0%" y1="100%" x2="0%" y2="0%" id="SvgjsLinearGradient1143">
            <stop stop-color="rgba(204, 204, 204, 0)" offset="0"></stop>
            <stop stop-color="rgba(204, 204, 204, 0.15)" offset="1"></stop>
        </linearGradient>
        <linearGradient x1="0%" y1="0%" x2="0%" y2="100%" id="SvgjsLinearGradient1144">
            <stop stop-color="rgba(204, 204, 204, 0)" offset="0"></stop>
            <stop stop-color="rgba(204, 204, 204, 0.15)" offset="1"></stop>
        </linearGradient>
    </defs>
</svg>